<svg xmlns="http://www.w3.org/2000/svg" xmlns:xlink="http://www.w3.org/1999/xlink" version="1.1" width="256" height="256" viewBox="0 0 256 256" xml:space="preserve">

<defs>
</defs>
<g style="stroke: none; stroke-width: 0; stroke-dasharray: none; stroke-linecap: butt; stroke-linejoin: miter; stroke-miterlimit: 10; fill: none; fill-rule: nonzero; opacity: 1;" transform="translate(45.02412451361867 45.024124513618645) scale(1.83 1.83)" >
    <!-- Adding stroke for the heart shape -->
	<path d="M 48.233 56.667 H 13.608 c -0.552 0 -1 -0.447 -1 -1 v -6.918 c 0 -0.553 0.448 -1 1 -1 h 34.624 c 0.553 0 1 0.447 1 1 v 6.918 C 49.233 56.22 48.786 56.667 48.233 56.667 z M 14.608 54.667 h 32.624 v -4.918 H 14.608 V 54.667 z" style="fill: rgb(201,248,18);" transform=" matrix(1 0 0 1 0 0) " stroke-linecap="round" />
	<path d="M 10.149 64.406 c -2.459 0 -4.459 -2 -4.459 -4.46 V 44.47 c 0 -2.459 2 -4.46 4.459 -4.46 s 4.46 2.001 4.46 4.46 v 15.476 C 14.608 62.406 12.608 64.406 10.149 64.406 z M 10.149 42.011 c -1.356 0 -2.459 1.103 -2.459 2.459 v 15.476 c 0 1.356 1.103 2.459 2.459 2.459 c 1.356 0 2.459 -1.104 2.459 -2.459 V 44.47 C 12.608 43.114 11.505 42.011 10.149 42.011 z" style="fill: rgb(201,248,18);" transform=" matrix(1 0 0 1 0 0) " stroke-linecap="round" />
	<path d="M 3.845 58.829 C 1.724 58.829 0 57.104 0 54.984 v -5.553 c 0 -2.12 1.724 -3.845 3.845 -3.845 s 3.845 1.725 3.845 3.845 v 5.553 C 7.69 57.104 5.965 58.829 3.845 58.829 z M 3.845 47.587 C 2.828 47.587 2 48.415 2 49.432 v 5.553 c 0 1.017 0.827 1.844 1.844 1.844 c 1.017 0 1.845 -0.827 1.845 -1.844 v -5.553 C 5.689 48.415 4.862 47.587 3.845 47.587 z" style="fill: rgb(201,248,18);" transform=" matrix(1 0 0 1 0 0) " stroke-linecap="round" />
	<path d="M 51.692 64.406 c -2.459 0 -4.46 -2 -4.46 -4.46 V 44.47 c 0 -2.459 2 -4.46 4.46 -4.46 s 4.46 2.001 4.46 4.46 v 15.476 C 56.152 62.406 54.152 64.406 51.692 64.406 z M 51.692 42.011 c -1.356 0 -2.459 1.103 -2.459 2.459 v 15.476 c 0 1.356 1.104 2.459 2.459 2.459 s 2.459 -1.104 2.459 -2.459 V 44.47 C 54.152 43.114 53.048 42.011 51.692 42.011 z" style="fill: rgb(201,248,18);" transform=" matrix(1 0 0 1 0 0) " stroke-linecap="round" />
	<path d="M 57.996 58.829 c -2.12 0 -3.845 -1.725 -3.845 -3.845 v -5.553 c 0 -2.12 1.725 -3.845 3.845 -3.845 c 2.12 0 3.845 1.725 3.845 3.845 v 5.553 C 61.841 57.104 60.116 58.829 57.996 58.829 z M 57.996 47.587 c -1.017 0 -1.844 0.827 -1.844 1.844 v 5.553 c 0 1.017 0.827 1.844 1.844 1.844 c 1.017 0 1.844 -0.827 1.844 -1.844 v -5.553 C 59.841 48.415 59.013 47.587 57.996 47.587 z" style="fill: rgb(201,248,18);" transform=" matrix(1 0 0 1 0 0) " stroke-linecap="round" />
	<!-- Heart shape with stroke color #454a60 -->
	<path d="M 53.535 78.709 c -0.168 0 -0.336 -0.042 -0.487 -0.127 C 47.003 75.21 37.951 68.09 31.525 61.651 c -0.39 -0.391 -0.389 -1.024 0.001 -1.414 c 0.392 -0.39 1.025 -0.39 1.415 0.002 c 6.14 6.152 14.697 12.925 20.593 16.321 c 7.801 -4.494 19.944 -14.752 24.857 -21.041 c 10.257 -13.129 12.636 -28.381 5.656 -36.267 c -3.24 -3.661 -7.804 -5.773 -12.852 -5.948 c -5.982 -0.214 -12.005 2.362 -16.96 7.235 c -0.389 0.383 -1.014 0.383 -1.403 0 c -4.953 -4.873 -10.972 -7.44 -16.959 -7.235 c -5.048 0.174 -9.612 2.287 -12.852 5.948 c -4.27 4.824 -5.137 12.597 -2.378 21.326 c 0.167 0.526 -0.126 1.089 -0.652 1.255 c -0.525 0.167 -1.089 -0.126 -1.255 -0.652 c -2.975 -9.416 -1.959 -17.891 2.788 -23.254 c 3.608 -4.076 8.68 -6.428 14.281 -6.621 c 6.253 -0.207 12.514 2.312 17.729 7.14 c 5.215 -4.827 11.473 -7.355 17.73 -7.14 c 5.601 0.194 10.673 2.545 14.281 6.621 c 7.619 8.608 5.273 24.935 -5.578 38.823 c -5.237 6.705 -17.846 17.316 -25.946 21.834 C 53.871 78.667 53.703 78.709 53.535 78.709 z" style="fill: rgb(201,248,18); stroke: #454a60; stroke-width: 2;" transform=" matrix(1 0 0 1 0 0) " stroke-linecap="round" />
	<path d="M 35.25 41.516 c -0.026 0 -0.052 -0.001 -0.078 -0.003 c -0.424 -0.033 -0.78 -0.33 -0.889 -0.741 l -2.32 -8.747 h -7.821 c -0.552 0 -1 -0.448 -1 -1 s 0.448 -1 1 -1 h 8.591 c 0.454 0 0.85 0.305 0.967 0.744 l 1.786 6.733 l 6.885 -15.62 c 0.166 -0.376 0.541 -0.606 0.956 -0.596 c 0.411 0.017 0.769 0.283 0.904 0.671 l 2.803 8.068 h 9.923 c 0.553 0 1 0.448 1 1 s -0.447 1 -1 1 H 46.322 c -0.426 0 -0.805 -0.27 -0.945 -0.672 l -2.202 -6.338 l -7.01 15.904 C 36.005 41.284 35.644 41.516 35.25 41.516 z" style="fill: rgb(201,248,18);" transform=" matrix(1 0 0 1 0 0) " stroke-linecap="round" />
</g>
</svg>
