<?xml version="1.0" encoding="UTF-8" standalone="no"?><!DOCTYPE svg PUBLIC "-//W3C//DTD SVG 1.1//EN" "http://www.w3.org/Graphics/SVG/1.1/DTD/svg11.dtd"><svg width="100%" height="100%" viewBox="0 0 1440 1024" version="1.1" xmlns="http://www.w3.org/2000/svg" xmlns:xlink="http://www.w3.org/1999/xlink" xml:space="preserve" xmlns:serif="http://www.serif.com/" style="fill-rule:evenodd;clip-rule:evenodd;stroke-linecap:round;stroke-linejoin:round;stroke-miterlimit:10;"><path d="M332.415,314.437c-42.752,69.341 -67.415,151.021 -67.415,238.459c0,251.285 203.711,454.996 454.996,454.996c251.293,0 455.004,-203.711 455.004,-454.996c0,-251.293 -203.711,-455.004 -455.004,-455.004l0,455.004l-387.581,-238.459Z" style="fill:none;fill-rule:nonzero;stroke:#454a60;stroke-width:8.07px;"/><path d="M303.394,215.847c83.31,-93.023 227.61,-161.904 362.311,-161.904l15.514,426.561l-377.825,-264.657Z" style="fill:#c9f812;fill-rule:nonzero;"/><path d="M303.394,171.895c83.31,-93.023 227.61,-161.895 362.311,-161.895l15.514,426.561l-377.825,-264.666Z" style="fill:none;fill-rule:nonzero;stroke:#454a60;stroke-width:8.07px;"/><path d="M576.518,19.044l87.898,87.898" style="fill:none;fill-rule:nonzero;stroke:#454a60;stroke-width:8.07px;"/><path d="M491.206,44.897l179.672,179.673" style="fill:none;fill-rule:nonzero;stroke:#454a60;stroke-width:8.07px;"/><path d="M418.82,81.09l258.517,258.517" style="fill:none;fill-rule:nonzero;stroke:#454a60;stroke-width:8.07px;"/><path d="M356.774,122.455l289.545,289.545" style="fill:none;fill-rule:nonzero;stroke:#454a60;stroke-width:8.07px;"/></svg>