<?xml version="1.0" encoding="UTF-8" standalone="no"?><!DOCTYPE svg PUBLIC "-//W3C//DTD SVG 1.1//EN" "http://www.w3.org/Graphics/SVG/1.1/DTD/svg11.dtd"><svg width="100%" height="100%" viewBox="0 0 1440 1024" version="1.1" xmlns="http://www.w3.org/2000/svg" xmlns:xlink="http://www.w3.org/1999/xlink" xml:space="preserve" xmlns:serif="http://www.serif.com/" style="fill-rule:evenodd;clip-rule:evenodd;stroke-linecap:round;stroke-linejoin:round;stroke-miterlimit:10;"><path d="M574.753,485.307c0,75.629 61.305,136.942 136.942,136.942c75.621,0 136.934,-61.313 136.934,-136.942c0,-75.629 -61.313,-136.942 -136.934,-136.942c-75.637,0 -136.942,61.313 -136.942,136.942" style="fill:#c9f812;fill-rule:nonzero;"/><path d="M593.258,498.262c0,75.58 61.36,136.942 136.938,136.942c75.578,0 136.938,-61.362 136.938,-136.942c0,-75.581 -61.36,-136.942 -136.938,-136.942c-75.578,0 -136.938,61.361 -136.938,136.942Z" style="fill:none;stroke:#454a60;stroke-width:7.72px;"/><path d="M879.786,354.855c22.468,-182.822 3.867,-319.748 -53.12,-333.531c-75.523,-18.256 -189.865,186.623 -255.389,457.618c-65.525,270.986 -57.422,505.476 18.1,523.732c61.559,14.891 148.919,-118.504 214.608,-315.117" style="fill:none;fill-rule:nonzero;stroke:#454a60;stroke-width:7.72px;"/><path d="M473.571,442.883c-156.997,60.64 -257.606,133.568 -244.899,187.436c17.847,75.621 252.279,85.02 523.635,21.006c271.347,-64.021 476.859,-177.223 459.021,-252.852c-13.381,-56.716 -148.599,-76.18 -329.845,-55.362" style="fill:none;fill-rule:nonzero;stroke:#454a60;stroke-width:7.72px;"/><path d="M696.466,280.23c-137.985,-132.083 -264.19,-202.089 -310.053,-163.359c-59.359,50.132 38.344,263.451 218.227,476.457c179.892,212.998 373.837,345.04 433.196,294.908c45.231,-38.197 -0.714,-171.1 -104.705,-326.43" style="fill:none;fill-rule:nonzero;stroke:#454a60;stroke-width:7.72px;"/><path d="M681.577,75.087c0,30.242 24.512,54.754 54.754,54.754c30.242,0 54.754,-24.512 54.754,-54.754c0,-30.241 -24.512,-54.753 -54.754,-54.753c-30.242,0 -54.754,24.512 -54.754,54.753" style="fill:#c9f812;fill-rule:nonzero;"/><path d="M702.87,84.213c0,30.22 24.535,54.754 54.754,54.754c30.22,0 54.754,-24.534 54.754,-54.754c0,-30.219 -24.534,-54.754 -54.754,-54.754c-30.219,0 -54.754,24.535 -54.754,54.754Z" style="fill:none;stroke:#454a60;stroke-width:7.72px;"/><path d="M353.049,689.555c0,30.242 24.512,54.754 54.754,54.754c30.242,0 54.754,-24.512 54.754,-54.754c0,-30.241 -24.512,-54.753 -54.754,-54.753c-30.242,0 -54.754,24.512 -54.754,54.753" style="fill:#c9f812;fill-rule:nonzero;"/><path d="M374.342,698.681c0,30.22 24.535,54.754 54.754,54.754c30.22,0 54.754,-24.534 54.754,-54.754c0,-30.219 -24.534,-54.754 -54.754,-54.754c-30.219,0 -54.754,24.535 -54.754,54.754Z" style="fill:none;stroke:#454a60;stroke-width:7.72px;"/><path d="M842.799,859.903c0,30.242 24.512,54.754 54.754,54.754c30.242,0 54.754,-24.512 54.754,-54.754c0,-30.242 -24.512,-54.754 -54.754,-54.754c-30.242,0 -54.754,24.512 -54.754,54.754" style="fill:#c9f812;fill-rule:nonzero;"/><path d="M864.092,869.029c0,30.22 24.535,54.754 54.754,54.754c30.22,0 54.754,-24.534 54.754,-54.754c0,-30.219 -24.534,-54.754 -54.754,-54.754c-30.219,0 -54.754,24.535 -54.754,54.754Z" style="fill:none;stroke:#454a60;stroke-width:7.72px;"/></svg>