<?xml version="1.0" encoding="UTF-8" standalone="no"?><!DOCTYPE svg PUBLIC "-//W3C//DTD SVG 1.1//EN" "http://www.w3.org/Graphics/SVG/1.1/DTD/svg11.dtd"><svg width="100%" height="100%" viewBox="0 0 6000 4267" version="1.1" xmlns="http://www.w3.org/2000/svg" xmlns:xlink="http://www.w3.org/1999/xlink" xml:space="preserve" xmlns:serif="http://www.serif.com/" style="fill-rule:evenodd;clip-rule:evenodd;stroke-linecap:round;stroke-linejoin:round;stroke-miterlimit:10;"><path d="M3455.3,1243.86l519.148,358.304l-221.969,169.998l-500.841,-374.22l203.662,-154.082Z" style="fill:#c9f812;fill-rule:nonzero;"/><path d="M3301.2,1386.94l517.281,341.192l183.598,172.054c0,0 -376.5,247.861 -417.636,483.654l-101.625,-88.885l-231.16,275.173c0,0 -167.831,-178.816 -455.371,-284.775l226.004,-364.282l107.491,-343.994l167.346,-190.436" style="fill:#c9f812;fill-rule:nonzero;"/><path d="M3741.46,715.557c0,154.082 -231.122,495.274 -374.22,594.322c-143.06,99.084 -319.186,286.195 -319.186,506.296c0,220.138 242.145,319.185 242.145,319.185c110.069,187.11 572.315,396.227 572.315,396.227c-341.192,33.028 -627.349,495.274 -968.542,682.384c-150.719,82.683 -462.245,99.085 -462.245,99.085c22.006,330.17 -297.18,704.391 -297.18,704.391c0,0 621.858,-368.729 841.996,-599.851c0,0 1194.17,-533.795 1337.23,-621.858c143.097,-88.063 242.144,-242.145 165.103,-385.205c-77.041,-143.097 -451.261,-526.135 -660.378,-686.83c0,0 266.879,-156.884 429.255,-259.705c330.171,-209.117 583.337,-517.318 583.337,-517.318l104.54,-247.637l368.28,66.057l58.359,-214.647l63.143,-10.984c0,0 22.006,-319.186 -44.013,-429.255c-66.057,-110.069 -308.201,-154.082 -484.29,-55.035c-124.677,70.129 -132.075,275.173 -132.075,275.173l-264.151,231.123c-77.041,-132.075 -297.18,-253.166 -484.252,-242.144c0,0 -374.221,-121.054 -693.407,-209.117c0,0 -473.267,132.076 -704.39,341.192c-231.16,209.117 -671.4,396.227 -726.435,539.324c-55.034,143.06 44.013,253.13 88.063,319.149c44.013,66.056 253.13,-28.732 297.142,-102.41c44.05,-73.679 -48.272,-260.789 -48.272,-260.789" style="fill:none;fill-rule:nonzero;stroke:#454a60;stroke-width:25.57px;"/><path d="M2904.98,2916.81c0,0 -864.488,330.17 -2149.23,1287.73" style="fill:none;fill-rule:nonzero;stroke:#454a60;stroke-width:25.57px;"/><path d="M753.256,4210.05l368.728,-764.917c0,0 308.164,22.006 396.19,-44.051c88.063,-66.019 352.214,-484.252 528.302,-572.315c176.126,-88.062 484.29,-99.047 594.359,-297.179c110.069,-198.095 408.444,-688.848 408.444,-688.848" style="fill:none;fill-rule:nonzero;stroke:#454a60;stroke-width:25.57px;"/><path d="M4880.61,842.129c0,0 121.053,99.048 71.548,318.738c0,0 88.026,116.01 165.104,237.063c0,0 154.082,-110.032 286.158,-187.073c132.075,-77.078 229.142,-264.151 229.142,-264.151c0,0 -82.981,-38.52 -98.3,-181.618l79.881,0c0,0 -12.629,-82.533 -1.607,-126.583c10.985,-44.013 110.069,-121.054 110.069,-121.054c0,0 264.151,10.985 176.089,396.227c-88.063,385.205 -737.419,869.494 -737.419,869.494c-253.167,-110.069 -572.315,-583.336 -572.315,-583.336" style="fill:none;fill-rule:nonzero;stroke:#454a60;stroke-width:25.57px;"/><path d="M4192.72,759.581c0,0 -261.199,-8.332 -455.296,-48.197c-194.06,-39.866 -447.227,-160.919 -447.227,-160.919l-1012.55,429.255" style="fill:none;fill-rule:nonzero;stroke:#454a60;stroke-width:25.57px;"/><path d="M3488.31,2322.47l-561.331,594.322c0,0 -864.45,330.207 -2149.19,1287.77" style="fill:none;fill-rule:nonzero;stroke:#454a60;stroke-width:25.57px;"/><path d="M3367.24,1309.9l519.148,358.304" style="fill:none;fill-rule:nonzero;stroke:#454a60;stroke-width:25.57px;"/><path d="M3670.85,2430.19c0,0 185.803,-339.137 422.605,-457.314" style="fill:none;fill-rule:nonzero;stroke:#454a60;stroke-width:25.57px;"/><path d="M2871.78,2154.52c0,0 280.852,85.41 462.881,330.656" style="fill:none;fill-rule:nonzero;stroke:#454a60;stroke-width:25.57px;"/><path d="M103.885,4210.05l1199.7,0" style="fill:none;fill-rule:nonzero;stroke:#454a60;stroke-width:25.57px;"/><path d="M1556.71,4210.05l429.255,0" style="fill:none;fill-rule:nonzero;stroke:#454a60;stroke-width:25.57px;"/><path d="M2338.16,4265.08l2025.15,0" style="fill:none;fill-rule:nonzero;stroke:#454a60;stroke-width:25.57px;"/></svg>